# xmcd
#
# Track frame offsets: 
#        150
#        20874
#        35509
#        50689
#        74613
#        93317
#        111198
#        124410
#        139920
#        160205
#
# Disc length: 2461 seconds
#
# Revision: 0
# Processed by: cddbd v1.5.2PL0 Copyright (c) Steve Scherf et al.
# Submitted via: ExactAudioCopy v1.0b3
#
DISCID=97099b0a
DTITLE=Various Artist - Long Gone Whistle - The Songs Of Maurice Fraw
DTITLE=ley [CD1]
DYEAR=2010
DGENRE=Rock
TTITLE0=Luke Steele and Katy Steele - Good Things
TTITLE1=Tex Perkins with Working Class Ringos - Harness Down
TTITLE2=Paul Kelly and The Large Number 12s featuring Jimmy Williams /
TTITLE2=When I Lay Down With You
TTITLE3=Adalita - Lonesome
TTITLE4=Tim Rogers and Billy Miller - Old Folks
TTITLE5=Chrissy Amphlett and Charlie Owen - Happy Home
TTITLE6=Kasey Chambers and Shane Nicholson - Hold On
TTITLE7=The Frawleys and Friends - Bush Cadillac
TTITLE8=Dan Brodie and Tom Carlyon - Roll Me
TTITLE9=Sarah Blasko - Sarah Belle
EXTD=
EXTT0=
EXTT1=
EXTT2=
EXTT3=
EXTT4=
EXTT5=
EXTT6=
EXTT7=
EXTT8=
EXTT9=
PLAYORDER=
